<svg xmlns="http://www.w3.org/2000/svg" viewBox="0 0 23 23" width="100%" height="100%" shape-rendering="crispEdges">
  <rect x="20" y="2" width="1" height="1" fill="#4398fe" stroke="#4398fe" stroke-width="0.02"/>
  <rect x="10" y="6" width="1" height="1" fill="#ed893b" stroke="#ed893b" stroke-width="0.02"/>
  <rect x="11" y="6" width="1" height="1" fill="#ea6a3b" stroke="#ea6a3b" stroke-width="0.02"/>
  <rect x="9" y="7" width="1" height="1" fill="#d4a841" stroke="#d4a841" stroke-width="0.02"/>
  <rect x="10" y="7" width="1" height="1" fill="#f1883a" stroke="#f1883a" stroke-width="0.02"/>
  <rect x="11" y="7" width="1" height="1" fill="#ed6b3c" stroke="#ed6b3c" stroke-width="0.02"/>
  <rect x="12" y="7" width="1" height="1" fill="#e9523b" stroke="#e9523b" stroke-width="0.02"/>
  <rect x="8" y="8" width="1" height="1" fill="#94ba4e" stroke="#94ba4e" stroke-width="0.02"/>
  <rect x="9" y="8" width="1" height="1" fill="#acaa47" stroke="#acaa47" stroke-width="0.02"/>
  <rect x="10" y="8" width="1" height="1" fill="#db8f43" stroke="#db8f43" stroke-width="0.02"/>
  <rect x="11" y="8" width="1" height="1" fill="#f0723b" stroke="#f0723b" stroke-width="0.02"/>
  <rect x="12" y="8" width="1" height="1" fill="#f3633a" stroke="#f3633a" stroke-width="0.02"/>
  <rect x="13" y="8" width="1" height="1" fill="#e84f40" stroke="#e84f40" stroke-width="0.02"/>
  <rect x="8" y="9" width="1" height="1" fill="#7ebd54" stroke="#7ebd54" stroke-width="0.02"/>
  <rect x="9" y="9" width="1" height="1" fill="#6ca95d" stroke="#6ca95d" stroke-width="0.02"/>
  <rect x="10" y="9" width="1" height="1" fill="#c38b4d" stroke="#c38b4d" stroke-width="0.02"/>
  <rect x="11" y="9" width="1" height="1" fill="#e97047" stroke="#e97047" stroke-width="0.02"/>
  <rect x="12" y="9" width="1" height="1" fill="#d95e4d" stroke="#d95e4d" stroke-width="0.02"/>
  <rect x="13" y="9" width="1" height="1" fill="#d84a51" stroke="#d84a51" stroke-width="0.02"/>
  <rect x="7" y="10" width="1" height="1" fill="#74b855" stroke="#74b855" stroke-width="0.02"/>
  <rect x="8" y="10" width="1" height="1" fill="#69b85d" stroke="#69b85d" stroke-width="0.02"/>
  <rect x="9" y="10" width="1" height="1" fill="#569e85" stroke="#569e85" stroke-width="0.02"/>
  <rect x="10" y="10" width="1" height="1" fill="#5486a7" stroke="#5486a7" stroke-width="0.02"/>
  <rect x="11" y="10" width="1" height="1" fill="#7769a3" stroke="#7769a3" stroke-width="0.02"/>
  <rect x="12" y="10" width="1" height="1" fill="#6965b5" stroke="#6965b5" stroke-width="0.02"/>
  <rect x="13" y="10" width="1" height="1" fill="#8d559a" stroke="#8d559a" stroke-width="0.02"/>
  <rect x="14" y="10" width="1" height="1" fill="#905389" stroke="#905389" stroke-width="0.02"/>
  <rect x="7" y="11" width="1" height="1" fill="#78bd58" stroke="#78bd58" stroke-width="0.02"/>
  <rect x="8" y="11" width="1" height="1" fill="#50ae7a" stroke="#50ae7a" stroke-width="0.02"/>
  <rect x="9" y="11" width="1" height="1" fill="#3f8cd3" stroke="#3f8cd3" stroke-width="0.02"/>
  <rect x="12" y="11" width="1" height="1" fill="#4574d9" stroke="#4574d9" stroke-width="0.02"/>
  <rect x="13" y="11" width="1" height="1" fill="#6664c1" stroke="#6664c1" stroke-width="0.02"/>
  <rect x="14" y="11" width="1" height="1" fill="#835ba6" stroke="#835ba6" stroke-width="0.02"/>
  <rect x="7" y="12" width="1" height="1" fill="#5bba78" stroke="#5bba78" stroke-width="0.02"/>
  <rect x="8" y="12" width="1" height="1" fill="#42a3a0" stroke="#42a3a0" stroke-width="0.02"/>
  <rect x="13" y="12" width="1" height="1" fill="#4576e0" stroke="#4576e0" stroke-width="0.02"/>
  <rect x="14" y="12" width="1" height="1" fill="#6269cb" stroke="#6269cb" stroke-width="0.02"/>
  <rect x="6" y="13" width="1" height="1" fill="#67bd8d" stroke="#67bd8d" stroke-width="0.02"/>
  <rect x="7" y="13" width="1" height="1" fill="#5db1cc" stroke="#5db1cc" stroke-width="0.02"/>
  <rect x="8" y="13" width="1" height="1" fill="#469ed2" stroke="#469ed2" stroke-width="0.02"/>
  <rect x="13" y="13" width="1" height="1" fill="#3c7ef2" stroke="#3c7ef2" stroke-width="0.02"/>
  <rect x="14" y="13" width="1" height="1" fill="#4577e5" stroke="#4577e5" stroke-width="0.02"/>
  <rect x="15" y="13" width="1" height="1" fill="#5c6ed6" stroke="#5c6ed6" stroke-width="0.02"/>
  <rect x="6" y="14" width="1" height="1" fill="#65be9b" stroke="#65be9b" stroke-width="0.02"/>
  <rect x="7" y="14" width="1" height="1" fill="#5fadef" stroke="#5fadef" stroke-width="0.02"/>
  <rect x="14" y="14" width="1" height="1" fill="#387bf2" stroke="#387bf2" stroke-width="0.02"/>
  <rect x="15" y="14" width="1" height="1" fill="#4477ea" stroke="#4477ea" stroke-width="0.02"/>
  <rect x="3" y="15" width="1" height="1" fill="#459bff" stroke="#459bff" stroke-width="0.02"/>
  <rect x="5" y="15" width="1" height="1" fill="#61b0ed" stroke="#61b0ed" stroke-width="0.02"/>
  <rect x="6" y="15" width="1" height="1" fill="#5fadef" stroke="#5fadef" stroke-width="0.02"/>
  <rect x="15" y="15" width="1" height="1" fill="#3778f0" stroke="#3778f0" stroke-width="0.02"/>
  <rect x="16" y="15" width="1" height="1" fill="#3c7af3" stroke="#3c7af3" stroke-width="0.02"/>
  <rect x="1" y="17" width="1" height="1" fill="#459bff" stroke="#459bff" stroke-width="0.02"/>
  <rect x="3" y="21" width="1" height="1" fill="#1b407c" stroke="#1b407c" stroke-width="0.02"/>
</svg>